# MagicaVoxel @ Ephtracy

# group
o 

# material
mtllib Curb-2.mtl
usemtl palette

# normals
vn -1 0 0
vn 1 0 0
vn 0 0 1
vn 0 0 -1
vn 0 -1 0
vn 0 1 0

# texcoords
vt 0.939453 0.5
vt 0.943359 0.5
vt 0.947266 0.5

# verts
v -0.4 0.1 0.3
v -0.4 0.1 -0.3
v -0.4 0.7 0.3
v -0.4 0.7 -0.3
v -0.3 0 0.3
v -0.3 0 -0.3
v -0.3 0.1 0.4
v -0.3 0.1 0.3
v -0.3 0.1 -0.3
v -0.3 0.1 -0.4
v -0.3 0.7 0.4
v -0.3 0.7 0.3
v -0.3 0.7 -0.3
v -0.3 0.7 -0.4
v -0.3 0.8 0.3
v -0.3 0.8 -0.3
v 0.3 0 0.3
v 0.3 0 -0.3
v 0.3 0.1 0.4
v 0.3 0.1 0.3
v 0.3 0.1 -0.3
v 0.3 0.1 -0.4
v 0.3 0.7 0.4
v 0.3 0.7 0.3
v 0.3 0.7 -0.3
v 0.3 0.7 -0.4
v 0.3 0.8 0.3
v 0.3 0.8 -0.3
v 0.4 0.1 0.3
v 0.4 0.1 -0.3
v 0.4 0.7 0.3
v 0.4 0.7 -0.3
v -0.3 0.1 0.4
v -0.3 0.7 0.4
v -0.2 0.1 0.4
v -0.2 0.2 0.4
v -0.2 0.6 0.4
v -0.2 0.7 0.4
v -0.1 0.2 0.4
v -0.1 0.3 0.4
v -0.1 0.5 0.4
v -0.1 0.6 0.4
v 0 0.3 0.4
v 0 0.5 0.4
v 0.1 0.2 0.4
v 0.1 0.3 0.4
v 0.1 0.5 0.4
v 0.1 0.6 0.4
v 0.2 0.1 0.4
v 0.2 0.2 0.4
v 0.2 0.6 0.4
v 0.2 0.7 0.4
v 0.3 0.1 0.4
v 0.3 0.7 0.4
v -0.4 0.1 0.3
v -0.4 0.7 0.3
v -0.3 0 0.3
v -0.3 0.1 0.3
v -0.3 0.7 0.3
v -0.3 0.8 0.3
v -0.2 0 0.3
v -0.2 0.1 0.3
v -0.2 0.7 0.3
v -0.2 0.8 0.3
v 0.2 0 0.3
v 0.2 0.1 0.3
v 0.2 0.7 0.3
v 0.2 0.8 0.3
v 0.3 0 0.3
v 0.3 0.1 0.3
v 0.3 0.7 0.3
v 0.3 0.8 0.3
v 0.4 0.1 0.3
v 0.4 0.7 0.3
v -0.4 0.1 -0.3
v -0.4 0.7 -0.3
v -0.3 0 -0.3
v -0.3 0.1 -0.3
v -0.3 0.7 -0.3
v -0.3 0.8 -0.3
v -0.2 0 -0.3
v -0.2 0.1 -0.3
v -0.2 0.7 -0.3
v -0.2 0.8 -0.3
v 0.2 0 -0.3
v 0.2 0.1 -0.3
v 0.2 0.7 -0.3
v 0.2 0.8 -0.3
v 0.3 0 -0.3
v 0.3 0.1 -0.3
v 0.3 0.7 -0.3
v 0.3 0.8 -0.3
v 0.4 0.1 -0.3
v 0.4 0.7 -0.3
v -0.3 0.1 -0.4
v -0.3 0.7 -0.4
v -0.2 0.1 -0.4
v -0.2 0.2 -0.4
v -0.2 0.6 -0.4
v -0.2 0.7 -0.4
v -0.1 0.2 -0.4
v -0.1 0.3 -0.4
v -0.1 0.5 -0.4
v -0.1 0.6 -0.4
v 0 0.3 -0.4
v 0 0.5 -0.4
v 0.1 0.2 -0.4
v 0.1 0.3 -0.4
v 0.1 0.5 -0.4
v 0.1 0.6 -0.4
v 0.2 0.1 -0.4
v 0.2 0.2 -0.4
v 0.2 0.6 -0.4
v 0.2 0.7 -0.4
v 0.3 0.1 -0.4
v 0.3 0.7 -0.4
v -0.3 0 0.3
v -0.2 0 0.3
v 0.2 0 0.3
v 0.3 0 0.3
v -0.3 0 -0.3
v -0.2 0 -0.3
v 0.2 0 -0.3
v 0.3 0 -0.3
v -0.3 0.1 0.4
v -0.2 0.1 0.4
v 0.2 0.1 0.4
v 0.3 0.1 0.4
v -0.4 0.1 0.3
v -0.3 0.1 0.3
v -0.2 0.1 0.3
v 0.2 0.1 0.3
v 0.3 0.1 0.3
v 0.4 0.1 0.3
v -0.4 0.1 -0.3
v -0.3 0.1 -0.3
v -0.2 0.1 -0.3
v 0.2 0.1 -0.3
v 0.3 0.1 -0.3
v 0.4 0.1 -0.3
v -0.3 0.1 -0.4
v -0.2 0.1 -0.4
v 0.2 0.1 -0.4
v 0.3 0.1 -0.4
v -0.3 0.7 0.4
v -0.2 0.7 0.4
v 0.2 0.7 0.4
v 0.3 0.7 0.4
v -0.4 0.7 0.3
v -0.3 0.7 0.3
v -0.2 0.7 0.3
v 0.2 0.7 0.3
v 0.3 0.7 0.3
v 0.4 0.7 0.3
v -0.4 0.7 -0.3
v -0.3 0.7 -0.3
v -0.2 0.7 -0.3
v 0.2 0.7 -0.3
v 0.3 0.7 -0.3
v 0.4 0.7 -0.3
v -0.3 0.7 -0.4
v -0.2 0.7 -0.4
v 0.2 0.7 -0.4
v 0.3 0.7 -0.4
v -0.3 0.8 0.3
v -0.2 0.8 0.3
v 0.2 0.8 0.3
v 0.3 0.8 0.3
v -0.2 0.8 0.2
v -0.1 0.8 0.2
v 0.1 0.8 0.2
v 0.2 0.8 0.2
v -0.1 0.8 0.1
v 0 0.8 0.1
v 0.1 0.8 0.1
v -0.1 0.8 -0.1
v 0 0.8 -0.1
v 0.1 0.8 -0.1
v -0.2 0.8 -0.2
v -0.1 0.8 -0.2
v 0.1 0.8 -0.2
v 0.2 0.8 -0.2
v -0.3 0.8 -0.3
v -0.2 0.8 -0.3
v 0.2 0.8 -0.3
v 0.3 0.8 -0.3

# faces
f 3/1/1 2/1/1 1/1/1
f 4/1/1 2/1/1 3/1/1
f 8/1/1 6/1/1 5/1/1
f 9/1/1 6/1/1 8/1/1
f 11/1/1 8/1/1 7/1/1
f 12/1/1 8/1/1 11/1/1
f 13/1/1 10/1/1 9/1/1
f 14/1/1 10/1/1 13/1/1
f 15/1/1 13/1/1 12/1/1
f 16/1/1 13/1/1 15/1/1
f 17/3/2 18/3/2 20/3/2
f 20/3/2 18/3/2 21/3/2
f 19/3/2 20/3/2 23/3/2
f 23/3/2 20/3/2 24/3/2
f 21/3/2 22/3/2 25/3/2
f 25/3/2 22/3/2 26/3/2
f 24/3/2 25/3/2 27/3/2
f 27/3/2 25/3/2 28/3/2
f 29/3/2 30/3/2 31/3/2
f 31/3/2 30/3/2 32/3/2
f 35/1/3 34/1/3 33/1/3
f 36/1/3 34/1/3 35/1/3
f 37/1/3 34/1/3 36/1/3
f 38/1/3 34/1/3 37/1/3
f 39/2/3 36/2/3 35/2/3
f 39/1/3 37/1/3 36/1/3
f 40/1/3 37/1/3 39/1/3
f 41/1/3 37/1/3 40/1/3
f 42/2/3 38/2/3 37/2/3
f 42/1/3 37/1/3 41/1/3
f 43/1/3 41/1/3 40/1/3
f 43/2/3 40/2/3 39/2/3
f 44/2/3 42/2/3 41/2/3
f 44/1/3 41/1/3 43/1/3
f 45/2/3 39/2/3 35/2/3
f 45/2/3 43/2/3 39/2/3
f 46/3/3 44/3/3 43/3/3
f 46/2/3 43/2/3 45/2/3
f 47/2/3 42/2/3 44/2/3
f 47/3/3 44/3/3 46/3/3
f 48/2/3 38/2/3 42/2/3
f 48/2/3 42/2/3 47/2/3
f 49/2/3 45/2/3 35/2/3
f 50/3/3 47/3/3 46/3/3
f 50/2/3 45/2/3 49/2/3
f 50/3/3 46/3/3 45/3/3
f 50/3/3 48/3/3 47/3/3
f 51/2/3 38/2/3 48/2/3
f 51/3/3 48/3/3 50/3/3
f 52/2/3 38/2/3 51/2/3
f 53/3/3 50/3/3 49/3/3
f 53/3/3 51/3/3 50/3/3
f 53/3/3 52/3/3 51/3/3
f 54/3/3 52/3/3 53/3/3
f 58/1/3 56/1/3 55/1/3
f 59/1/3 56/1/3 58/1/3
f 61/1/3 58/1/3 57/1/3
f 62/1/3 58/1/3 61/1/3
f 63/1/3 60/1/3 59/1/3
f 64/1/3 60/1/3 63/1/3
f 65/2/3 62/2/3 61/2/3
f 66/2/3 62/2/3 65/2/3
f 67/2/3 64/2/3 63/2/3
f 68/2/3 64/2/3 67/2/3
f 69/3/3 66/3/3 65/3/3
f 70/3/3 66/3/3 69/3/3
f 71/3/3 68/3/3 67/3/3
f 72/3/3 68/3/3 71/3/3
f 73/3/3 71/3/3 70/3/3
f 74/3/3 71/3/3 73/3/3
f 75/1/4 76/1/4 78/1/4
f 78/1/4 76/1/4 79/1/4
f 77/1/4 78/1/4 81/1/4
f 81/1/4 78/1/4 82/1/4
f 79/1/4 80/1/4 83/1/4
f 83/1/4 80/1/4 84/1/4
f 81/2/4 82/2/4 85/2/4
f 85/2/4 82/2/4 86/2/4
f 83/2/4 84/2/4 87/2/4
f 87/2/4 84/2/4 88/2/4
f 85/3/4 86/3/4 89/3/4
f 89/3/4 86/3/4 90/3/4
f 87/3/4 88/3/4 91/3/4
f 91/3/4 88/3/4 92/3/4
f 90/3/4 91/3/4 93/3/4
f 93/3/4 91/3/4 94/3/4
f 95/1/4 96/1/4 97/1/4
f 97/1/4 96/1/4 98/1/4
f 98/1/4 96/1/4 99/1/4
f 99/1/4 96/1/4 100/1/4
f 97/2/4 98/2/4 101/2/4
f 98/1/4 99/1/4 101/1/4
f 101/1/4 99/1/4 102/1/4
f 102/1/4 99/1/4 103/1/4
f 99/2/4 100/2/4 104/2/4
f 103/1/4 99/1/4 104/1/4
f 102/1/4 103/1/4 105/1/4
f 101/2/4 102/2/4 105/2/4
f 103/2/4 104/2/4 106/2/4
f 105/1/4 103/1/4 106/1/4
f 97/2/4 101/2/4 107/2/4
f 101/2/4 105/2/4 107/2/4
f 105/3/4 106/3/4 108/3/4
f 107/2/4 105/2/4 108/2/4
f 106/2/4 104/2/4 109/2/4
f 108/3/4 106/3/4 109/3/4
f 104/2/4 100/2/4 110/2/4
f 109/2/4 104/2/4 110/2/4
f 97/2/4 107/2/4 111/2/4
f 108/3/4 109/3/4 112/3/4
f 111/2/4 107/2/4 112/2/4
f 107/3/4 108/3/4 112/3/4
f 109/3/4 110/3/4 112/3/4
f 110/2/4 100/2/4 113/2/4
f 112/3/4 110/3/4 113/3/4
f 113/2/4 100/2/4 114/2/4
f 111/3/4 112/3/4 115/3/4
f 112/3/4 113/3/4 115/3/4
f 113/3/4 114/3/4 115/3/4
f 115/3/4 114/3/4 116/3/4
f 121/1/5 118/1/5 117/1/5
f 122/2/5 119/2/5 118/2/5
f 122/1/5 118/1/5 121/1/5
f 123/3/5 120/3/5 119/3/5
f 123/2/5 119/2/5 122/2/5
f 124/3/5 120/3/5 123/3/5
f 130/1/5 126/1/5 125/1/5
f 131/2/5 127/2/5 126/2/5
f 131/1/5 126/1/5 130/1/5
f 132/3/5 128/3/5 127/3/5
f 132/2/5 127/2/5 131/2/5
f 133/3/5 128/3/5 132/3/5
f 135/1/5 130/1/5 129/1/5
f 136/1/5 130/1/5 135/1/5
f 139/3/5 134/3/5 133/3/5
f 140/3/5 134/3/5 139/3/5
f 141/1/5 137/1/5 136/1/5
f 142/2/5 138/2/5 137/2/5
f 142/1/5 137/1/5 141/1/5
f 143/3/5 139/3/5 138/3/5
f 143/2/5 138/2/5 142/2/5
f 144/3/5 139/3/5 143/3/5
f 145/1/6 146/1/6 150/1/6
f 146/2/6 147/2/6 151/2/6
f 150/1/6 146/1/6 151/1/6
f 147/3/6 148/3/6 152/3/6
f 151/2/6 147/2/6 152/2/6
f 152/3/6 148/3/6 153/3/6
f 149/1/6 150/1/6 155/1/6
f 155/1/6 150/1/6 156/1/6
f 153/3/6 154/3/6 159/3/6
f 159/3/6 154/3/6 160/3/6
f 156/1/6 157/1/6 161/1/6
f 157/2/6 158/2/6 162/2/6
f 161/1/6 157/1/6 162/1/6
f 158/3/6 159/3/6 163/3/6
f 162/2/6 158/2/6 163/2/6
f 163/3/6 159/3/6 164/3/6
f 165/1/6 166/1/6 169/1/6
f 166/2/6 167/2/6 169/2/6
f 169/2/6 167/2/6 170/2/6
f 170/2/6 167/2/6 171/2/6
f 167/3/6 168/3/6 172/3/6
f 171/2/6 167/2/6 172/2/6
f 170/2/6 171/2/6 173/2/6
f 169/1/6 170/1/6 173/1/6
f 173/2/6 171/2/6 174/2/6
f 171/3/6 172/3/6 175/3/6
f 174/2/6 171/2/6 175/2/6
f 173/1/6 174/1/6 176/1/6
f 169/1/6 173/1/6 176/1/6
f 174/3/6 175/3/6 177/3/6
f 176/1/6 174/1/6 177/1/6
f 175/3/6 172/3/6 178/3/6
f 177/3/6 175/3/6 178/3/6
f 165/1/6 169/1/6 179/1/6
f 169/1/6 176/1/6 179/1/6
f 176/2/6 177/2/6 180/2/6
f 179/1/6 176/1/6 180/1/6
f 177/2/6 178/2/6 180/2/6
f 178/3/6 172/3/6 181/3/6
f 180/2/6 178/2/6 181/2/6
f 172/3/6 168/3/6 182/3/6
f 181/3/6 172/3/6 182/3/6
f 165/1/6 179/1/6 183/1/6
f 180/2/6 181/2/6 184/2/6
f 183/1/6 179/1/6 184/1/6
f 179/2/6 180/2/6 184/2/6
f 181/2/6 182/2/6 184/2/6
f 182/3/6 168/3/6 185/3/6
f 184/2/6 182/2/6 185/2/6
f 185/3/6 168/3/6 186/3/6
